<?xml version="1.0" encoding="UTF-8"?>
<svg xmlns="http://www.w3.org/2000/svg" xmlns:xlink="http://www.w3.org/1999/xlink" width="128pt" height="128pt" viewBox="0 0 128 128" version="1.1">
<defs>
<linearGradient id="linear0" gradientUnits="userSpaceOnUse" x1="86" y1="20.87113" x2="86" y2="153.01281" gradientTransform="matrix(0.744186,0,0,0.744186,0,0)">
<stop offset="0" style="stop-color:rgb(100%,32.54902%,0%);stop-opacity:1;"/>
<stop offset="1" style="stop-color:rgb(27.058824%,7.843137%,35.294118%);stop-opacity:1;"/>
</linearGradient>
<linearGradient id="linear1" gradientUnits="userSpaceOnUse" x1="67.17138" y1="51.51938" x2="67.17138" y2="117.85225" gradientTransform="matrix(0.744186,0,0,0.744186,0,0)">
<stop offset="0" style="stop-color:rgb(100%,62.352941%,43.921569%);stop-opacity:1;"/>
<stop offset="1" style="stop-color:rgb(54.509804%,15.686275%,71.372549%);stop-opacity:1;"/>
</linearGradient>
<linearGradient id="linear2" gradientUnits="userSpaceOnUse" x1="104.90656" y1="51.51938" x2="104.90656" y2="117.85225" gradientTransform="matrix(0.744186,0,0,0.744186,0,0)">
<stop offset="0" style="stop-color:rgb(100%,62.352941%,43.921569%);stop-opacity:1;"/>
<stop offset="1" style="stop-color:rgb(54.509804%,15.686275%,71.372549%);stop-opacity:1;"/>
</linearGradient>
</defs>
<g id="surface15049020">
<rect x="0" y="0" width="128" height="128" style="fill:rgb(100%,100%,100%);fill-opacity:1;stroke:none;"/>
<path style=" stroke:none;fill-rule:nonzero;fill:url(#linear0);" d="M 102 16 L 26 16 C 20.484375 16 16 20.484375 16 26 L 16 102 C 16 107.515625 20.484375 112 26 112 L 102 112 C 107.515625 112 112 107.515625 112 102 L 112 26 C 112 20.484375 107.515625 16 102 16 Z M 108 102 C 108 105.308594 105.308594 108 102 108 L 26 108 C 22.691406 108 20 105.308594 20 102 L 20 26 C 20 22.691406 22.691406 20 26 20 L 102 20 C 105.308594 20 108 22.691406 108 26 Z M 108 102 "/>
<path style=" stroke:none;fill-rule:nonzero;fill:url(#linear1);" d="M 62.269531 63.652344 C 62.195312 62.78125 61.847656 61.929688 61.25 61.28125 L 44.886719 39.570312 C 43.554688 37.808594 41.046875 37.457031 39.285156 38.785156 C 37.519531 40.117188 37.167969 42.625 38.496094 44.386719 L 53.28125 64 L 38.496094 83.613281 C 37.167969 85.378906 37.519531 87.886719 39.285156 89.214844 C 41.046875 90.546875 43.554688 90.195312 44.886719 88.429688 C 44.886719 88.429688 61.25 66.722656 61.25 66.71875 C 61.84375 65.933594 62.253906 65.132812 62.28125 64.117188 C 62.289062 63.960938 62.285156 63.808594 62.269531 63.652344 Z M 62.269531 63.652344 "/>
<path style=" stroke:none;fill-rule:nonzero;fill:url(#linear2);" d="M 89.621094 83.769531 L 74.71875 64 L 89.503906 44.386719 C 90.832031 42.621094 90.480469 40.113281 88.714844 38.785156 C 86.953125 37.453125 84.445312 37.804688 83.113281 39.570312 C 83.113281 39.570312 66.75 61.277344 66.75 61.28125 C 66.152344 62.070312 65.742188 62.878906 65.71875 63.90625 C 65.695312 64.925781 66.054688 65.960938 66.75 66.71875 L 83.230469 88.585938 C 84.5625 90.347656 87.070312 90.699219 88.835938 89.371094 C 90.597656 88.042969 90.949219 85.535156 89.621094 83.769531 Z M 89.621094 83.769531 "/>
</g>
</svg>
